<svg version="1.1" id="Layer_1" xmlns="http://www.w3.org/2000/svg" xmlns:xlink="http://www.w3.org/1999/xlink" x="0px" y="0px"
	 width="100%" viewBox="0 0 500 500" enable-background="new 0 0 500 500" xml:space="preserve">
<path fill="#F8FAFC" opacity="1.000000" stroke="none" 
	d="
M298.000000,501.000000 
	C198.666687,501.000000 99.833382,501.000000 1.000053,501.000000 
	C1.000035,334.333405 1.000035,167.666794 1.000018,1.000143 
	C167.666565,1.000095 334.333130,1.000095 500.999756,1.000047 
	C500.999847,167.666519 500.999847,334.333038 500.999939,500.999786 
	C433.500000,501.000000 366.000000,501.000000 298.000000,501.000000 
M305.573151,46.117218 
	C294.923828,59.792202 290.323975,75.224564 290.738983,92.601318 
	C291.765839,135.596283 333.865845,168.359085 375.806488,158.419495 
	C413.338409,149.524734 436.306885,114.890427 429.929840,76.806595 
	C424.223297,42.727161 390.726868,16.781353 356.439880,19.559973 
	C335.916748,21.223171 319.238831,29.941792 305.573151,46.117218 
M332.461578,388.073608 
	C308.241882,359.822327 284.022186,331.571045 259.539215,303.012634 
	C233.586929,333.314575 208.079056,363.097626 182.456894,393.014099 
	C208.325195,423.117889 233.777420,452.737488 259.382172,482.534607 
	C260.387726,481.575684 261.029480,481.060425 261.556854,480.446899 
	C285.538971,452.543701 309.429565,424.561035 333.583923,396.807831 
	C336.723602,393.200287 335.583527,391.150238 332.461578,388.073608 
M154.914444,105.505531 
	C166.571106,131.532806 192.407410,145.075195 218.937302,141.687317 
	C251.826248,137.487396 273.651550,108.586136 272.409454,78.115685 
	C270.882507,40.658730 234.843460,12.148727 198.311539,20.765133 
	C159.861526,29.833944 140.300598,67.437233 154.914444,105.505531 
M38.500000,338.000702 
	C89.692039,338.000702 140.884079,338.000702 193.071426,338.000702 
	C161.549805,299.315155 130.713562,261.470734 99.564774,223.242767 
	C68.310822,261.615143 37.530762,299.405670 6.095452,338.000702 
	C17.524031,338.000702 27.512014,338.000702 38.500000,338.000702 
M314.000580,218.277115 
	C313.904999,214.615952 314.167664,210.904190 313.658661,207.301437 
	C308.354034,169.755386 267.526672,148.690887 234.173569,166.255447 
	C213.140244,177.332108 201.393768,201.390442 206.026581,225.614578 
	C210.410492,248.537247 231.137665,267.156036 254.290665,268.969177 
	C285.182678,271.388397 310.493439,250.292145 314.000580,218.277115 
M87.114067,204.521729 
	C97.066414,207.089493 106.827911,206.695541 116.507668,203.038300 
	C137.861649,194.970276 150.189102,170.923691 144.333298,148.505844 
	C138.356949,125.626564 115.843048,110.544228 93.163345,114.226479 
	C72.343056,117.606842 55.469135,134.400879 53.952385,153.251831 
	C51.922825,178.476212 63.655518,196.938507 87.114067,204.521729 
M484.882294,258.389709 
	C485.630951,257.498260 486.386230,256.612244 487.127350,255.714569 
	C497.849121,242.727676 498.697723,224.572525 489.231750,210.739517 
	C479.840851,197.016159 462.028473,191.340256 445.952911,196.948669 
	C431.328949,202.050629 421.106506,216.695572 421.342560,232.206177 
	C421.587219,248.283661 432.027466,262.629089 446.911285,267.278900 
	C461.002441,271.681122 473.413055,268.511200 484.882294,258.389709 
M402.206726,209.362000 
	C392.063202,196.824402 376.368622,191.673111 362.131042,196.208298 
	C346.255157,201.265366 336.687988,213.665634 335.680603,230.491302 
	C334.186707,255.442490 358.984192,275.090302 382.799194,267.824799 
	C407.950714,260.151642 417.413422,232.572464 402.206726,209.362000 
z"/>
<path fill="#41A3B1" opacity="1.000000" stroke="none" 
	d="
M305.791687,45.835743 
	C319.238831,29.941792 335.916748,21.223171 356.439880,19.559973 
	C390.726868,16.781353 424.223297,42.727161 429.929840,76.806595 
	C436.306885,114.890427 413.338409,149.524734 375.806488,158.419495 
	C333.865845,168.359085 291.765839,135.596283 290.738983,92.601318 
	C290.323975,75.224564 294.923828,59.792202 305.791687,45.835743 
z"/>
<path fill="#84AC48" opacity="1.000000" stroke="none" 
	d="
M332.699646,388.343750 
	C335.583527,391.150238 336.723602,393.200287 333.583923,396.807831 
	C309.429565,424.561035 285.538971,452.543701 261.556854,480.446899 
	C261.029480,481.060425 260.387726,481.575684 259.382172,482.534607 
	C233.777420,452.737488 208.325195,423.117889 182.456894,393.014099 
	C208.079056,363.097626 233.586929,333.314575 259.539215,303.012634 
	C284.022186,331.571045 308.241882,359.822327 332.699646,388.343750 
z"/>
<path fill="#E5933E" opacity="1.000000" stroke="none" 
	d="
M154.752502,105.159241 
	C140.300598,67.437233 159.861526,29.833944 198.311539,20.765133 
	C234.843460,12.148727 270.882507,40.658730 272.409454,78.115685 
	C273.651550,108.586136 251.826248,137.487396 218.937302,141.687317 
	C192.407410,145.075195 166.571106,131.532806 154.752502,105.159241 
z"/>
<path fill="#EB5061" opacity="1.000000" stroke="none" 
	d="
M38.000000,338.000702 
	C27.512014,338.000702 17.524031,338.000702 6.095452,338.000702 
	C37.530762,299.405670 68.310822,261.615143 99.564774,223.242767 
	C130.713562,261.470734 161.549805,299.315155 193.071426,338.000702 
	C140.884079,338.000702 89.692039,338.000702 38.000000,338.000702 
z"/>
<path fill="#EB5062" opacity="1.000000" stroke="none" 
	d="
M313.996979,218.742371 
	C310.493439,250.292145 285.182678,271.388397 254.290665,268.969177 
	C231.137665,267.156036 210.410492,248.537247 206.026581,225.614578 
	C201.393768,201.390442 213.140244,177.332108 234.173569,166.255447 
	C267.526672,148.690887 308.354034,169.755386 313.658661,207.301437 
	C314.167664,210.904190 313.904999,214.615952 313.996979,218.742371 
z"/>
<path fill="#E5933E" opacity="1.000000" stroke="none" 
	d="
M86.733643,204.379364 
	C63.655518,196.938507 51.922825,178.476212 53.952385,153.251831 
	C55.469135,134.400879 72.343056,117.606842 93.163345,114.226479 
	C115.843048,110.544228 138.356949,125.626564 144.333298,148.505844 
	C150.189102,170.923691 137.861649,194.970276 116.507668,203.038300 
	C106.827911,206.695541 97.066414,207.089493 86.733643,204.379364 
z"/>
<path fill="#5271FF" opacity="1.000000" stroke="none" 
	d="
M484.622437,258.631500 
	C473.413055,268.511200 461.002441,271.681122 446.911285,267.278900 
	C432.027466,262.629089 421.587219,248.283661 421.342560,232.206177 
	C421.106506,216.695572 431.328949,202.050629 445.952911,196.948669 
	C462.028473,191.340256 479.840851,197.016159 489.231750,210.739517 
	C498.697723,224.572525 497.849121,242.727676 487.127350,255.714569 
	C486.386230,256.612244 485.630951,257.498260 484.622437,258.631500 
z"/>
<path fill="#41A4B1" opacity="1.000000" stroke="none" 
	d="
M402.437805,209.638306 
	C417.413422,232.572464 407.950714,260.151642 382.799194,267.824799 
	C358.984192,275.090302 334.186707,255.442490 335.680603,230.491302 
	C336.687988,213.665634 346.255157,201.265366 362.131042,196.208298 
	C376.368622,191.673111 392.063202,196.824402 402.437805,209.638306 
z"/>
</svg>