<svg version="1.1" id="Layer_1" xmlns="http://www.w3.org/2000/svg" xmlns:xlink="http://www.w3.org/1999/xlink" x="0px" y="0px"
	 width="100%" viewBox="0 0 500 500" enable-background="new 0 0 500 500" xml:space="preserve">
<path fill="#FFFFFF" opacity="1.000000" stroke="none" 
	d="
M298.000000,501.000000 
	C198.666687,501.000000 99.833382,501.000000 1.000053,501.000000 
	C1.000035,334.333405 1.000035,167.666794 1.000018,1.000143 
	C167.666565,1.000095 334.333130,1.000095 500.999756,1.000047 
	C500.999847,167.666519 500.999847,334.333038 500.999939,500.999786 
	C433.500000,501.000000 366.000000,501.000000 298.000000,501.000000 
M305.572601,46.116909 
	C294.924561,59.792221 290.314911,75.224220 290.738922,92.600853 
	C291.788666,135.625031 333.875702,168.373245 375.805389,158.415894 
	C413.355591,149.498581 436.298340,114.905739 429.930511,76.806580 
	C424.236938,42.741253 390.764832,16.806581 356.439911,19.564283 
	C335.917572,21.213072 319.236786,29.938524 305.572601,46.116909 
M332.461884,388.074005 
	C308.238800,359.819153 284.015717,331.564301 259.537933,303.012360 
	C233.594223,333.304810 208.083267,363.091949 182.457291,393.013397 
	C208.323807,423.115631 233.778473,452.738586 259.710876,482.917511 
	C260.678650,481.640594 261.235413,480.819000 261.877838,480.070984 
	C285.635284,452.408661 309.325256,424.687561 333.258301,397.177917 
	C336.323334,393.654907 336.064972,391.360565 332.461884,388.074005 
M154.914261,105.505432 
	C166.587143,131.557938 192.431976,145.073303 218.937469,141.687012 
	C251.836960,137.483841 273.651306,108.584045 272.409668,78.116150 
	C270.883087,40.655807 234.841736,12.148353 198.311508,20.765907 
	C159.859924,29.836712 140.305496,67.426651 154.914261,105.505432 
M38.500000,338.000641 
	C89.696060,338.000641 140.892120,338.000641 193.071335,338.000641 
	C161.549820,299.315521 130.710617,261.467773 99.564400,223.243286 
	C68.308617,261.618042 37.527340,299.410248 6.095931,338.000641 
	C17.521154,338.000641 27.510578,338.000641 38.500000,338.000641 
M314.000427,218.277191 
	C314.001587,217.110641 314.016876,215.943909 314.001740,214.777573 
	C313.716248,192.777359 303.744446,176.336472 284.439941,166.270294 
	C264.243164,155.738831 244.491074,157.938904 226.293152,171.524399 
	C208.308624,184.950592 200.902710,208.089691 207.089981,229.976608 
	C212.970551,250.778687 232.036530,266.685089 253.791458,268.938782 
	C284.258240,272.095032 310.458130,250.452118 314.000427,218.277191 
M87.114159,204.521347 
	C97.066414,207.089508 106.829796,206.698975 116.507698,203.038681 
	C137.867645,194.960098 150.193146,170.910980 144.331863,148.505737 
	C138.343811,125.616043 115.838348,110.538826 93.162422,114.225510 
	C72.333710,117.611885 55.472801,134.393936 53.952366,153.252213 
	C51.919075,178.471527 63.650806,196.931427 87.114159,204.521347 
M484.880981,258.388458 
	C485.529816,257.630096 486.189819,256.880920 486.825897,256.112000 
	C497.841797,242.795883 498.800079,224.707428 489.233124,210.738815 
	C479.835693,197.017746 462.037659,191.347412 445.953552,196.950272 
	C431.329712,202.044449 421.108856,216.687592 421.344604,232.206787 
	C421.588898,248.288849 432.029022,262.625183 446.911865,267.278168 
	C461.007202,271.684967 473.411530,268.506073 484.880981,258.388458 
M402.205353,209.363342 
	C392.070679,196.831039 376.395264,191.749405 362.125214,196.187302 
	C347.084930,200.864746 336.316803,214.248840 335.589111,230.486725 
	C334.469238,255.476730 358.973419,275.090027 382.798706,267.824615 
	C407.954468,260.153473 417.427795,232.544830 402.205353,209.363342 
z"/>
<path fill="#41A3B1" opacity="1.000000" stroke="none" 
	d="
M305.791016,45.835300 
	C319.236786,29.938524 335.917572,21.213072 356.439911,19.564283 
	C390.764832,16.806581 424.236938,42.741253 429.930511,76.806580 
	C436.298340,114.905739 413.355591,149.498581 375.805389,158.415894 
	C333.875702,168.373245 291.788666,135.625031 290.738922,92.600853 
	C290.314911,75.224220 294.924561,59.792221 305.791016,45.835300 
z"/>
<path fill="#85AC48" opacity="1.000000" stroke="none" 
	d="
M332.699524,388.344727 
	C336.064972,391.360565 336.323334,393.654907 333.258301,397.177917 
	C309.325256,424.687561 285.635284,452.408661 261.877838,480.070984 
	C261.235413,480.819000 260.678650,481.640594 259.710876,482.917511 
	C233.778473,452.738586 208.323807,423.115631 182.457291,393.013397 
	C208.083267,363.091949 233.594223,333.304810 259.537933,303.012360 
	C284.015717,331.564301 308.238800,359.819153 332.699524,388.344727 
z"/>
<path fill="#E5933E" opacity="1.000000" stroke="none" 
	d="
M154.752045,105.159248 
	C140.305496,67.426651 159.859924,29.836712 198.311508,20.765907 
	C234.841736,12.148353 270.883087,40.655807 272.409668,78.116150 
	C273.651306,108.584045 251.836960,137.483841 218.937469,141.687012 
	C192.431976,145.073303 166.587143,131.557938 154.752045,105.159248 
z"/>
<path fill="#EB5061" opacity="1.000000" stroke="none" 
	d="
M38.000000,338.000641 
	C27.510578,338.000641 17.521154,338.000641 6.095931,338.000641 
	C37.527340,299.410248 68.308617,261.618042 99.564400,223.243286 
	C130.710617,261.467773 161.549820,299.315521 193.071335,338.000641 
	C140.892120,338.000641 89.696060,338.000641 38.000000,338.000641 
z"/>
<path fill="#EB5062" opacity="1.000000" stroke="none" 
	d="
M313.997009,218.742432 
	C310.458130,250.452118 284.258240,272.095032 253.791458,268.938782 
	C232.036530,266.685089 212.970551,250.778687 207.089981,229.976608 
	C200.902710,208.089691 208.308624,184.950592 226.293152,171.524399 
	C244.491074,157.938904 264.243164,155.738831 284.439941,166.270294 
	C303.744446,176.336472 313.716248,192.777359 314.001740,214.777573 
	C314.016876,215.943909 314.001587,217.110641 313.997009,218.742432 
z"/>
<path fill="#E5933E" opacity="1.000000" stroke="none" 
	d="
M86.733902,204.378510 
	C63.650806,196.931427 51.919075,178.471527 53.952366,153.252213 
	C55.472801,134.393936 72.333710,117.611885 93.162422,114.225510 
	C115.838348,110.538826 138.343811,125.616043 144.331863,148.505737 
	C150.193146,170.910980 137.867645,194.960098 116.507698,203.038681 
	C106.829796,206.698975 97.066414,207.089508 86.733902,204.378510 
z"/>
<path fill="#5271FF" opacity="1.000000" stroke="none" 
	d="
M484.621033,258.630249 
	C473.411530,268.506073 461.007202,271.684967 446.911865,267.278168 
	C432.029022,262.625183 421.588898,248.288849 421.344604,232.206787 
	C421.108856,216.687592 431.329712,202.044449 445.953552,196.950272 
	C462.037659,191.347412 479.835693,197.017746 489.233124,210.738815 
	C498.800079,224.707428 497.841797,242.795883 486.825897,256.112000 
	C486.189819,256.880920 485.529816,257.630096 484.621033,258.630249 
z"/>
<path fill="#41A4B1" opacity="1.000000" stroke="none" 
	d="
M402.437378,209.638947 
	C417.427795,232.544830 407.954468,260.153473 382.798706,267.824615 
	C358.973419,275.090027 334.469238,255.476730 335.589111,230.486725 
	C336.316803,214.248840 347.084930,200.864746 362.125214,196.187302 
	C376.395264,191.749405 392.070679,196.831039 402.437378,209.638947 
z"/>
</svg>